{
  "accessors": [
    {
      "bufferView": 3,
      "componentType": 5126,
      "count": 2886,
      "max": [
        3.5035924911499023,
        0.8330588340759277,
        0.16150379180908203
      ],
      "min": [
        -1.1430187225341797,
        -0.23673808574676514,
        -3.2304723262786865
      ],
      "type": "VEC3"
    },
    {
      "bufferView": 3,
      "byteOffset": 34632,
      "componentType": 5126,
      "count": 2886,
      "max": [
        0.9995546936988831,
        0.9999359250068665,
        0.99825519323349
      ],
      "min": [
        -0.9979596138000488,
        -0.9999802708625793,
        -0.9989178776741028
      ],
      "type": "VEC3"
    },
    {
      "bufferView": 2,
      "componentType": 5126,
      "count": 2886,
      "max": [
        0.8750002384185791,
        1.000000238418579
      ],
      "min": [
        0.125,
        0.0
      ],
      "type": "VEC2"
    },
    {
      "bufferView": 1,
      "componentType": 5125,
      "count": 9792,
      "type": "SCALAR"
    },
    {
      "bufferView": 3,
      "byteOffset": 69264,
      "componentType": 5126,
      "count": 2886,
      "max": [
        3.5035924911499023,
        0.8330588340759277,
        3.0824954509735107
      ],
      "min": [
        -1.1430187225341797,
        -0.23673808574676514,
        -0.30948054790496826
      ],
      "type": "VEC3"
    },
    {
      "bufferView": 3,
      "byteOffset": 103896,
      "componentType": 5126,
      "count": 2886,
      "max": [
        0.9995546936988831,
        0.9999359250068665,
        0.9989178776741028
      ],
      "min": [
        -0.9979596138000488,
        -0.9999802708625793,
        -0.99825519323349
      ],
      "type": "VEC3"
    },
    {
      "bufferView": 2,
      "byteOffset": 23088,
      "componentType": 5126,
      "count": 2886,
      "max": [
        0.8750002384185791,
        1.000000238418579
      ],
      "min": [
        0.125,
        0.0
      ],
      "type": "VEC2"
    },
    {
      "bufferView": 1,
      "byteOffset": 39168,
      "componentType": 5125,
      "count": 9792,
      "type": "SCALAR"
    },
    {
      "bufferView": 5,
      "componentType": 5126,
      "count": 21,
      "max": [
        1.0,
        0.9986708164215088,
        0.6091078519821167,
        0.0,
        0.0,
        1.0,
        0.019025569781661034,
        0.0,
        0.009865461848676205,
        0.7767027616500854,
        1.0,
        0.0,
        0.4987243413925171,
        1.471892237663269,
        2.5984857082366943,
        1.0
      ],
      "min": [
        -0.16651874780654907,
        0.0,
        -0.7834681272506714,
        0.0,
        -0.9999983310699463,
        -0.2301863431930542,
        -0.0075295898132026196,
        0.0,
        -0.15905924141407013,
        -0.6090449094772339,
        0.6211404800415039,
        0.0,
        0.0,
        -2.90484881401062,
        0.0,
        1.0
      ],
      "type": "MAT4"
    },
    {
      "bufferView": 5,
      "byteOffset": 1344,
      "componentType": 5126,
      "count": 21,
      "max": [
        1.0,
        0.9986708164215088,
        0.6091078519821167,
        0.0,
        0.0,
        1.0,
        0.019025569781661034,
        0.0,
        0.15905924141407013,
        0.6090449094772339,
        1.0,
        0.0,
        0.49779582023620605,
        1.3755340576171875,
        2.452364206314087,
        1.0
      ],
      "min": [
        -0.16651874780654907,
        0.0,
        -0.7834681272506714,
        0.0,
        -0.9999983310699463,
        -0.2301863431930542,
        -0.0075295898132026196,
        0.0,
        -0.009865461848676205,
        -0.7767027616500854,
        -0.9999890923500061,
        0.0,
        0.0,
        -2.8773012161254883,
        0.0,
        1.0
      ],
      "type": "MAT4"
    },
    {
      "bufferView": 0,
      "componentType": 5123,
      "count": 2886,
      "type": "VEC4"
    },
    {
      "bufferView": 4,
      "componentType": 5126,
      "count": 2886,
      "max": [
        1.0,
        0.499430388212204,
        0.2863673269748688,
        0.21307268738746643
      ],
      "min": [
        0.2980283200740814,
        0.0,
        0.0,
        0.0
      ],
      "type": "VEC4"
    },
    {
      "bufferView": 0,
      "byteOffset": 23088,
      "componentType": 5123,
      "count": 2886,
      "type": "VEC4"
    },
    {
      "bufferView": 4,
      "byteOffset": 46176,
      "componentType": 5126,
      "count": 2886,
      "max": [
        1.0,
        0.499430388212204,
        0.2863673269748688,
        0.21307268738746643
      ],
      "min": [
        0.2980283200740814,
        0.0,
        0.0,
        0.0
      ],
      "type": "VEC4"
    }
  ],
  "asset": {
    "extras": {
      "author": "61c3n (https://sketchfab.com/bttkller)",
      "license": "CC-BY-4.0 (http://creativecommons.org/licenses/by/4.0/)",
      "source": "https://sketchfab.com/3d-models/free-basic-hands-6a943effa9714f01a6f6074ede48fde8",
      "title": "free basic hands"
    },
    "generator": "Sketchfab-14.64.0",
    "version": "2.0"
  },
  "bufferViews": [
    {
      "buffer": 0,
      "byteLength": 46176,
      "byteStride": 8,
      "name": "shortBufferViews",
      "target": 34962
    },
    {
      "buffer": 0,
      "byteLength": 78336,
      "byteOffset": 46176,
      "name": "floatBufferViews",
      "target": 34963
    },
    {
      "buffer": 0,
      "byteLength": 46176,
      "byteOffset": 124512,
      "byteStride": 8,
      "name": "floatBufferViews",
      "target": 34962
    },
    {
      "buffer": 0,
      "byteLength": 138528,
      "byteOffset": 170688,
      "byteStride": 12,
      "name": "floatBufferViews",
      "target": 34962
    },
    {
      "buffer": 0,
      "byteLength": 92352,
      "byteOffset": 309216,
      "byteStride": 16,
      "name": "floatBufferViews",
      "target": 34962
    },
    {
      "buffer": 0,
      "byteLength": 2688,
      "byteOffset": 401568,
      "name": "floatBufferViews"
    }
  ],
  "buffers": [
    {
      "byteLength": 404256,
      "uri": "scene.bin"
    }
  ],
  "extensionsUsed": [
    "KHR_materials_specular"
  ],
  "materials": [
    {
      "doubleSided": true,
      "extensions": {
        "KHR_materials_specular": {
          "specularColorFactor": [
            1.0,
            1.0,
            1.0
          ],
          "specularFactor": 0.11416498209893082
        }
      },
      "name": "Scene_-_Root",
      "pbrMetallicRoughness": {
        "metallicFactor": 0.0,
        "roughnessFactor": 0.4734041257702331
      }
    }
  ],
  "meshes": [
    {
      "name": "Object_0",
      "primitives": [
        {
          "attributes": {
            "JOINTS_0": 10,
            "NORMAL": 1,
            "POSITION": 0,
            "TEXCOORD_0": 2,
            "WEIGHTS_0": 11
          },
          "indices": 3,
          "material": 0,
          "mode": 4
        }
      ]
    },
    {
      "name": "Object_1",
      "primitives": [
        {
          "attributes": {
            "JOINTS_0": 12,
            "NORMAL": 5,
            "POSITION": 4,
            "TEXCOORD_0": 6,
            "WEIGHTS_0": 13
          },
          "indices": 7,
          "material": 0,
          "mode": 4
        }
      ]
    }
  ],
  "nodes": [
    {
      "children": [
        1
      ],
      "matrix": [
        1.0,
        0.0,
        0.0,
        0.0,
        0.0,
        2.220446049250313e-16,
        -1.0,
        0.0,
        0.0,
        1.0,
        2.220446049250313e-16,
        0.0,
        0.0,
        0.0,
        0.0,
        1.0
      ],
      "name": "Sketchfab_model"
    },
    {
      "children": [
        2
      ],
      "name": "root"
    },
    {
      "children": [
        3,
        28
      ],
      "matrix": [
        1.0,
        0.0,
        0.0,
        0.0,
        0.0,
        2.220446049250313e-16,
        1.0,
        0.0,
        0.0,
        -1.0,
        2.220446049250313e-16,
        0.0,
        0.0,
        0.0,
        0.0,
        1.0
      ],
      "name": "GLTF_SceneRootNode"
    },
    {
      "children": [
        4
      ],
      "matrix": [
        -0.014831236733116926,
        -0.9998900111597107,
        -0.0,
        0.0,
        0.9998900111597107,
        -0.014831236733116926,
        0.0,
        0.0,
        0.0,
        0.0,
        1.0,
        0.0,
        -0.9796772599220276,
        0.3609710931777954,
        -2.0429179668426514,
        1.0
      ],
      "name": "Armature_21"
    },
    {
      "children": [
        5,
        7,
        6
      ],
      "name": "GLTF_created_0"
    },
    {
      "children": [
        8
      ],
      "name": "GLTF_created_0_rootJoint"
    },
    {
      "name": "eva hand_20"
    },
    {
      "mesh": 0,
      "name": "Object_7",
      "skin": 0
    },
    {
      "children": [
        9,
        13,
        17,
        21,
        25
      ],
      "name": "Bone_19",
      "rotation": [
        -0.2094753533601761,
        -0.32319724559783936,
        0.19044561684131622,
        0.902991771697998
      ],
      "translation": [
        -0.10724383592605591,
        0.007670225575566292,
        0.38657572865486145
      ]
    },
    {
      "children": [
        10
      ],
      "name": "Bone.001_3",
      "rotation": [
        -0.36898308992385864,
        -0.07011060416698456,
        0.012838269583880901,
        0.9266990423202515
      ],
      "scale": [
        1.0,
        0.9999999403953552,
        1.0
      ],
      "translation": [
        1.1060729221412657e-08,
        1.2131885290145874,
        -1.9127630035420395e-10
      ]
    },
    {
      "children": [
        11
      ],
      "name": "Bone.008_2",
      "rotation": [
        0.18766498565673828,
        0.16622349619865417,
        -0.5505033135414124,
        0.7963025569915771
      ],
      "scale": [
        0.9999998211860657,
        0.9999998807907104,
        1.0
      ],
      "translation": [
        -9.747750340238781e-08,
        1.2482035160064697,
        -1.7218103209870605e-07
      ]
    },
    {
      "children": [
        12
      ],
      "name": "Bone.009_1",
      "rotation": [
        -0.05379888415336609,
        -0.022472208365797997,
        -0.5374375581741333,
        0.8412856459617615
      ],
      "scale": [
        0.9999999403953552,
        0.9999998807907104,
        0.9999998807907104
      ],
      "translation": [
        1.262135214119553e-07,
        0.624579131603241,
        -5.768826838448149e-08
      ]
    },
    {
      "name": "Bone.010_0",
      "rotation": [
        -0.08099081367254257,
        -0.041324418038129807,
        -0.6026155352592468,
        0.792834997177124
      ],
      "scale": [
        1.0,
        1.0000001192092896,
        1.0000001192092896
      ],
      "translation": [
        -2.2863973470066412e-07,
        0.5610016584396362,
        -2.647900565477812e-08
      ]
    },
    {
      "children": [
        14
      ],
      "name": "Bone.002_7",
      "rotation": [
        -0.10665787011384964,
        0.006345008499920368,
        -0.04172651097178459,
        0.9933996200561523
      ],
      "scale": [
        0.9999998807907104,
        1.0000001192092896,
        1.0
      ],
      "translation": [
        -3.3475547667194405e-08,
        1.2131885290145874,
        5.949568615548628e-11
      ]
    },
    {
      "children": [
        15
      ],
      "name": "Bone.011_6",
      "rotation": [
        0.1042633056640625,
        -0.06254325807094574,
        -0.28123730421066284,
        0.9519050121307373
      ],
      "translation": [
        3.77185109812217e-08,
        1.1093779802322388,
        1.1197094362813687e-09
      ]
    },
    {
      "children": [
        16
      ],
      "name": "Bone.012_5",
      "rotation": [
        -0.14003275334835052,
        0.012817592360079288,
        -0.48384082317352295,
        0.8637850284576416
      ],
      "scale": [
        1.0000001192092896,
        1.0,
        1.0
      ],
      "translation": [
        2.987987457458985e-08,
        0.6016925573348999,
        -5.989702511755013e-09
      ]
    },
    {
      "name": "Bone.013_4",
      "rotation": [
        0.02936234138906002,
        0.017894580960273743,
        0.1766263097524643,
        0.9836771488189697
      ],
      "scale": [
        1.0,
        0.9999999403953552,
        1.0
      ],
      "translation": [
        3.073370535844333e-08,
        0.7291508913040161,
        9.907877540626941e-08
      ]
    },
    {
      "children": [
        18
      ],
      "name": "Bone.003_11",
      "rotation": [
        0.3986952602863312,
        0.1534457802772522,
        0.05258588120341301,
        0.9026246070861816
      ],
      "scale": [
        0.9999999403953552,
        1.0000001192092896,
        1.0
      ],
      "translation": [
        3.5494118755252657e-09,
        1.213188648223877,
        7.688991843224358e-08
      ]
    },
    {
      "children": [
        19
      ],
      "name": "Bone.017_10",
      "rotation": [
        -0.10125672072172165,
        -0.008782179094851017,
        0.029918795451521873,
        0.9943715929985046
      ],
      "scale": [
        0.9999998807907104,
        0.9999999403953552,
        0.9999998211860657
      ],
      "translation": [
        -2.7939677238464355e-09,
        1.1880855560302734,
        1.407461240887642e-07
      ]
    },
    {
      "children": [
        20
      ],
      "name": "Bone.018_9",
      "rotation": [
        -0.02073066495358944,
        0.005625376012176275,
        -0.5783537030220032,
        0.8155032992362976
      ],
      "scale": [
        1.0000001192092896,
        1.0,
        1.0
      ],
      "translation": [
        -7.5902839569153e-08,
        0.7090795636177063,
        2.973648705051346e-08
      ]
    },
    {
      "name": "Bone.019_8",
      "rotation": [
        0.015710407868027687,
        0.0038556931540369987,
        0.17966929078102112,
        0.9835940599441528
      ],
      "scale": [
        1.0000001192092896,
        0.9999999403953552,
        0.9999999403953552
      ],
      "translation": [
        -9.747340712351615e-09,
        0.6255495548248291,
        3.987813101957727e-08
      ]
    },
    {
      "children": [
        22
      ],
      "name": "Bone.004_15",
      "rotation": [
        0.1373344361782074,
        -0.007945396937429905,
        -0.04128069058060646,
        0.9896323680877686
      ],
      "scale": [
        1.0,
        0.9999998807907104,
        1.0
      ],
      "translation": [
        4.613468718162039e-08,
        1.2131884098052979,
        -3.22712168099315e-08
      ]
    },
    {
      "children": [
        23
      ],
      "name": "Bone.014_14",
      "rotation": [
        -0.09707621484994888,
        0.06882151961326599,
        -0.05131792277097702,
        0.9915676116943359
      ],
      "scale": [
        1.0,
        0.9999998807907104,
        1.0
      ],
      "translation": [
        -5.572810124476746e-08,
        1.0835237503051758,
        3.0748892321241783e-10
      ]
    },
    {
      "children": [
        24
      ],
      "name": "Bone.015_13",
      "rotation": [
        0.03452523052692413,
        -0.015886567533016205,
        -0.48151928186416626,
        0.8756111264228821
      ],
      "translation": [
        -4.761386662721634e-08,
        0.7132394909858704,
        -3.783453994543606e-09
      ]
    },
    {
      "name": "Bone.016_12",
      "rotation": [
        0.09412458539009094,
        -0.020780550315976143,
        0.08673599362373352,
        0.9915571808815002
      ],
      "scale": [
        1.0,
        0.9999999403953552,
        0.9999998807907104
      ],
      "translation": [
        -7.437824134370885e-09,
        0.7519482374191284,
        4.485080751237547e-08
      ]
    },
    {
      "children": [
        26
      ],
      "name": "Bone.005_18",
      "rotation": [
        0.4270753562450409,
        0.03380680829286575,
        -0.037626996636390686,
        0.9028000831604004
      ],
      "scale": [
        0.9999998807907104,
        1.0,
        0.9999999403953552
      ],
      "translation": [
        0.10344932973384857,
        0.26430925726890564,
        0.6259244680404663
      ]
    },
    {
      "children": [
        27
      ],
      "name": "Bone.006_17",
      "rotation": [
        -0.12182757258415222,
        -0.07109352201223373,
        -0.16350366175174713,
        0.9764068722724915
      ],
      "scale": [
        0.9999999403953552,
        0.9999998807907104,
        0.9999999403953552
      ],
      "translation": [
        -3.0256273930717725e-08,
        0.7594572305679321,
        -1.1094067531303153e-07
      ]
    },
    {
      "name": "Bone.007_16",
      "rotation": [
        0.23686547577381134,
        0.10960913449525833,
        0.12106181681156158,
        0.9577184319496155
      ],
      "scale": [
        0.9999999403953552,
        1.0000001192092896,
        1.0000001192092896
      ],
      "translation": [
        -8.930587824806935e-08,
        0.7434895634651184,
        -1.590180431776389e-07
      ]
    },
    {
      "children": [
        29
      ],
      "matrix": [
        -0.014831236733116926,
        -0.9998900111597107,
        0.0,
        0.0,
        0.9998900111597107,
        -0.014831236733116926,
        0.0,
        0.0,
        0.0,
        0.0,
        -1.0,
        -0.0,
        -0.9796772599220276,
        0.3609710931777954,
        1.8949413299560547,
        1.0
      ],
      "name": "Armature.001_43"
    },
    {
      "children": [
        30,
        32,
        31
      ],
      "name": "GLTF_created_1"
    },
    {
      "children": [
        33
      ],
      "name": "GLTF_created_1_rootJoint"
    },
    {
      "name": "eva hand.001_42"
    },
    {
      "mesh": 1,
      "name": "Object_32",
      "skin": 1
    },
    {
      "children": [
        34,
        38,
        42,
        46,
        50
      ],
      "name": "Bone_41",
      "rotation": [
        -0.16879898309707642,
        -0.3038690686225891,
        0.19398082792758942,
        0.9173559546470642
      ],
      "scale": [
        0.9999999403953552,
        1.0000001192092896,
        1.0
      ]
    },
    {
      "children": [
        35
      ],
      "name": "Bone.001_25",
      "rotation": [
        -0.36898308992385864,
        -0.07011064141988754,
        0.012838289141654968,
        0.9266990423202515
      ],
      "scale": [
        0.9999999403953552,
        1.0,
        0.9999998807907104
      ],
      "translation": [
        1.891549317178942e-08,
        1.213188648223877,
        -7.236074139882476e-08
      ]
    },
    {
      "children": [
        36
      ],
      "name": "Bone.008_24",
      "rotation": [
        0.18766498565673828,
        0.16622348129749298,
        -0.5505032539367676,
        0.7963026165962219
      ],
      "scale": [
        0.9999997019767761,
        0.9999998211860657,
        0.9999999403953552
      ],
      "translation": [
        -1.911731430936925e-07,
        1.248203992843628,
        2.2895214613072312e-08
      ]
    },
    {
      "children": [
        37
      ],
      "name": "Bone.009_23",
      "rotation": [
        -0.05828103795647621,
        -0.00162691087462008,
        -0.19902773201465607,
        0.9782580137252808
      ],
      "scale": [
        1.0000001192092896,
        1.0000001192092896,
        1.0
      ],
      "translation": [
        -2.314142903969696e-07,
        0.624579131603241,
        -2.7893477749785234e-08
      ]
    },
    {
      "name": "Bone.010_22",
      "rotation": [
        -0.08099080622196198,
        -0.0413244366645813,
        -0.6026155352592468,
        0.792834997177124
      ],
      "scale": [
        1.0,
        1.0,
        1.0000001192092896
      ],
      "translation": [
        2.481979208823759e-07,
        0.5610016584396362,
        1.3736671178321558e-07
      ]
    },
    {
      "children": [
        39
      ],
      "name": "Bone.002_29",
      "rotation": [
        -0.10665787011384964,
        0.006345014553517103,
        -0.04172651842236519,
        0.9933996200561523
      ],
      "scale": [
        0.9999998807907104,
        1.0000001192092896,
        1.0
      ],
      "translation": [
        -4.896458349890054e-08,
        1.2131885290145874,
        -2.9007157564819863e-08
      ]
    },
    {
      "children": [
        40
      ],
      "name": "Bone.011_28",
      "rotation": [
        0.13638988137245178,
        -0.06504498422145844,
        -0.13031399250030518,
        0.9798904657363892
      ],
      "scale": [
        0.9999999403953552,
        1.0,
        1.0
      ],
      "translation": [
        6.403808328059313e-08,
        1.1093777418136597,
        -5.8202985542266106e-08
      ]
    },
    {
      "children": [
        41
      ],
      "name": "Bone.012_27",
      "rotation": [
        -0.14003272354602814,
        0.012817557901144028,
        -0.48384082317352295,
        0.8637850284576416
      ],
      "scale": [
        1.0000001192092896,
        1.0000001192092896,
        1.0
      ],
      "translation": [
        -2.9744080976001896e-08,
        0.6016923189163208,
        3.037300899677575e-08
      ]
    },
    {
      "name": "Bone.013_26",
      "rotation": [
        0.029362322762608528,
        0.017894595861434937,
        0.1766263246536255,
        0.9836771488189697
      ],
      "scale": [
        1.0,
        0.9999999403953552,
        1.0
      ],
      "translation": [
        -2.0769397224285058e-07,
        0.7291510105133057,
        4.256421348713957e-08
      ]
    },
    {
      "children": [
        43
      ],
      "name": "Bone.003_33",
      "rotation": [
        0.3855849802494049,
        0.14352649450302124,
        -0.01778949797153473,
        0.9112672209739685
      ],
      "scale": [
        0.9999999403953552,
        1.0000001192092896,
        1.0
      ],
      "translation": [
        5.558323934451437e-08,
        1.2131885290145874,
        5.800094848851245e-10
      ]
    },
    {
      "children": [
        44
      ],
      "name": "Bone.017_32",
      "rotation": [
        -0.10125673562288284,
        -0.008782178163528442,
        0.02991882525384426,
        0.9943715929985046
      ],
      "scale": [
        0.9999999403953552,
        1.0,
        0.9999999403953552
      ],
      "translation": [
        -8.432786025025507e-09,
        1.1880857944488525,
        3.521398639350082e-08
      ]
    },
    {
      "children": [
        45
      ],
      "name": "Bone.018_31",
      "rotation": [
        -0.020730651915073395,
        0.005625363439321518,
        -0.5783537030220032,
        0.8155032992362976
      ],
      "scale": [
        1.0000001192092896,
        1.000000238418579,
        1.0000001192092896
      ],
      "translation": [
        1.0296466257386783e-07,
        0.7090800404548645,
        -4.40074146013103e-08
      ]
    },
    {
      "name": "Bone.019_30",
      "rotation": [
        0.015710430219769478,
        0.0038556845393031836,
        0.17966926097869873,
        0.9835940599441528
      ],
      "scale": [
        1.0,
        0.9999999403953552,
        0.9999998807907104
      ],
      "translation": [
        -2.481974377133156e-07,
        0.62554931640625,
        7.107791688554244e-09
      ]
    },
    {
      "children": [
        47
      ],
      "name": "Bone.004_37",
      "rotation": [
        0.1373344361782074,
        -0.007945402525365353,
        -0.04128067195415497,
        0.9896323680877686
      ],
      "scale": [
        1.0,
        0.9999998807907104,
        1.0
      ],
      "translation": [
        8.531155515356659e-08,
        1.2131885290145874,
        3.4134384208073243e-10
      ]
    },
    {
      "children": [
        48
      ],
      "name": "Bone.014_36",
      "rotation": [
        -0.09707619994878769,
        0.06882151961326599,
        -0.05131789669394493,
        0.9915676116943359
      ],
      "translation": [
        -1.1268259214602949e-07,
        1.0835239887237549,
        -5.160116600677611e-08
      ]
    },
    {
      "children": [
        49
      ],
      "name": "Bone.015_35",
      "rotation": [
        0.03452524542808533,
        -0.01588660106062889,
        -0.48151928186416626,
        0.8756111264228821
      ],
      "scale": [
        0.9999999403953552,
        1.0000001192092896,
        1.0
      ],
      "translation": [
        1.0141020823084546e-07,
        0.7132397294044495,
        2.504574325712383e-09
      ]
    },
    {
      "name": "Bone.016_34",
      "rotation": [
        0.09412458539009094,
        -0.020780550315976143,
        0.08673597872257233,
        0.9915571808815002
      ],
      "scale": [
        1.0,
        0.9999998807907104,
        1.0
      ],
      "translation": [
        -7.450562833355434e-09,
        0.7519484758377075,
        1.5594503466331844e-08
      ]
    },
    {
      "children": [
        51
      ],
      "name": "Bone.005_40",
      "rotation": [
        0.4270752966403961,
        0.033806804567575455,
        -0.037627000361680984,
        0.9028000831604004
      ],
      "scale": [
        0.9999999403953552,
        1.0000001192092896,
        0.9999999403953552
      ],
      "translation": [
        0.10344937443733215,
        0.26430919766426086,
        0.6259243488311768
      ]
    },
    {
      "children": [
        52
      ],
      "name": "Bone.006_39",
      "rotation": [
        -0.238569438457489,
        -0.18476195633411407,
        -0.05026087164878845,
        0.9520617127418518
      ],
      "scale": [
        0.9999999403953552,
        0.9999998211860657,
        1.0000001192092896
      ],
      "translation": [
        -1.555260453756091e-08,
        0.7594572305679321,
        -8.88949003297057e-08
      ]
    },
    {
      "name": "Bone.007_38",
      "rotation": [
        0.23686547577381134,
        0.10960909724235535,
        0.12106180936098099,
        0.9577184319496155
      ],
      "scale": [
        0.9999999403953552,
        1.0000001192092896,
        1.0000001192092896
      ],
      "translation": [
        -9.087344920999385e-08,
        0.7434895634651184,
        -2.774926315396442e-07
      ]
    }
  ],
  "scene": 0,
  "scenes": [
    {
      "name": "Sketchfab_Scene",
      "nodes": [
        0
      ]
    }
  ],
  "skins": [
    {
      "inverseBindMatrices": 8,
      "joints": [
        5,
        8,
        9,
        10,
        11,
        12,
        13,
        14,
        15,
        16,
        17,
        18,
        19,
        20,
        21,
        22,
        23,
        24,
        25,
        26,
        27
      ],
      "skeleton": 5
    },
    {
      "inverseBindMatrices": 9,
      "joints": [
        30,
        33,
        34,
        35,
        36,
        37,
        38,
        39,
        40,
        41,
        42,
        43,
        44,
        45,
        46,
        47,
        48,
        49,
        50,
        51,
        52
      ],
      "skeleton": 30
    }
  ]
}
